G04 ===== Begin FILE IDENTIFICATION =====*
G04 File Format:  Gerber RS274X*
G04 ===== End FILE IDENTIFICATION =====*
%FSLAX24Y24*%
%MOMM*%
%SFA1.0000B1.0000*%
%OFA0.0B0.0*%
%ADD10C,0.000025*%
%LNL2*%
%IPPOS*%
%LPD*%
G75*
G36*
G01X-697845Y-299250D02*
G01X-519358D01*
G01Y-242514D01*
G01X-510802Y-237514D01*
G01X-504690Y-232514D01*
G01X-501023Y-227514D01*
G01X-500558Y-225612D01*
G01X-499042D01*
G01X-498577Y-227514D01*
G01X-494910Y-232514D01*
G01X-488798Y-237514D01*
G01X-480242Y-242514D01*
G01Y-299250D01*
G01X-376558D01*
G01Y-242514D01*
G01X-368002Y-237514D01*
G01X-361890Y-232514D01*
G01X-358223Y-227514D01*
G01X-357758Y-225612D01*
G01X-356242D01*
G01X-355777Y-227514D01*
G01X-352110Y-232514D01*
G01X-345998Y-237514D01*
G01X-337442Y-242514D01*
G01Y-299250D01*
G01X-233758D01*
G01Y-242514D01*
G01X-225202Y-237514D01*
G01X-219090Y-232514D01*
G01X-215423Y-227514D01*
G01X-214958Y-225612D01*
G01X-213442D01*
G01X-212977Y-227514D01*
G01X-209310Y-232514D01*
G01X-203198Y-237514D01*
G01X-194642Y-242514D01*
G01Y-299250D01*
G01X-90958D01*
G01Y-242514D01*
G01X-82402Y-237514D01*
G01X-76290Y-232514D01*
G01X-72623Y-227514D01*
G01X-72158Y-225612D01*
G01X-70642D01*
G01X-70177Y-227514D01*
G01X-66510Y-232514D01*
G01X-60398Y-237514D01*
G01X-51842Y-242514D01*
G01Y-299250D01*
G01X51842D01*
G01Y-242514D01*
G01X60398Y-237514D01*
G01X66510Y-232514D01*
G01X70177Y-227514D01*
G01X70642Y-225612D01*
G01X72158D01*
G01X72623Y-227514D01*
G01X76290Y-232514D01*
G01X82402Y-237514D01*
G01X90958Y-242514D01*
G01Y-299250D01*
G01X194642D01*
G01Y-242514D01*
G01X203198Y-237514D01*
G01X209310Y-232514D01*
G01X212977Y-227514D01*
G01X213442Y-225612D01*
G01X214958D01*
G01X215423Y-227514D01*
G01X219090Y-232514D01*
G01X225202Y-237514D01*
G01X233758Y-242514D01*
G01Y-299250D01*
G01X337442D01*
G01Y-242514D01*
G01X345998Y-237514D01*
G01X352110Y-232514D01*
G01X355777Y-227514D01*
G01X356242Y-225612D01*
G01X357758D01*
G01X358223Y-227514D01*
G01X361890Y-232514D01*
G01X368002Y-237514D01*
G01X376558Y-242514D01*
G01Y-299250D01*
G01X480242D01*
G01Y-242514D01*
G01X488798Y-237514D01*
G01X494910Y-232514D01*
G01X498577Y-227514D01*
G01X499042Y-225612D01*
G01X500558D01*
G01X501023Y-227514D01*
G01X504690Y-232514D01*
G01X510802Y-237514D01*
G01X519358Y-242514D01*
G01Y-299250D01*
G01X765032D01*
G01Y-242514D01*
G01X773588Y-237514D01*
G01X779700Y-232514D01*
G01X783367Y-227514D01*
G01X783832Y-225612D01*
G01X785348D01*
G01X785813Y-227514D01*
G01X789480Y-232514D01*
G01X795592Y-237514D01*
G01X804148Y-242514D01*
G01Y-299250D01*
G01X905522D01*
G01Y-242514D01*
G01X914078Y-237514D01*
G01X920190Y-232514D01*
G01X923857Y-227514D01*
G01X924322Y-225612D01*
G01X925838D01*
G01X926303Y-227514D01*
G01X929970Y-232514D01*
G01X936082Y-237514D01*
G01X944638Y-242514D01*
G01Y-299250D01*
G01X1009575D01*
G01Y299250D01*
G01X980325D01*
G01Y267250D01*
G01X944638D01*
G01Y210514D01*
G01X936082Y205514D01*
G01X929970Y200514D01*
G01X926303Y195514D01*
G01X925838Y193612D01*
G01X924322D01*
G01X923857Y195514D01*
G01X920190Y200514D01*
G01X914078Y205514D01*
G01X905522Y210514D01*
G01Y267250D01*
G01X869835D01*
G01Y299250D01*
G01X804148D01*
G01Y242514D01*
G01X795592Y237514D01*
G01X789480Y232514D01*
G01X785813Y227514D01*
G01X785348Y225612D01*
G01X783832D01*
G01Y179416D01*
G01X785348D01*
G01X785813Y177514D01*
G01X789480Y172514D01*
G01X795592Y167514D01*
G01X804148Y162514D01*
G01Y105778D01*
G01X839835D01*
G01Y80736D01*
G01X804148D01*
G01Y24000D01*
G01X795592Y19000D01*
G01X789480Y14000D01*
G01X785813Y9000D01*
G01X785348Y7098D01*
G01X783832D01*
G01X783367Y9000D01*
G01X779700Y14000D01*
G01X773588Y19000D01*
G01X765032Y24000D01*
G01Y80736D01*
G01X729345D01*
G01Y105778D01*
G01X765032D01*
G01Y162514D01*
G01X773588Y167514D01*
G01X779700Y172514D01*
G01X783367Y177514D01*
G01X783832Y179416D01*
G01Y225612D01*
G01X783367Y227514D01*
G01X779700Y232514D01*
G01X773588Y237514D01*
G01X765032Y242514D01*
G01Y299250D01*
G01X486300D01*
G01Y6000D01*
G01X513300D01*
G01Y-6000D01*
G01X486300D01*
G01Y6000D01*
G01Y299250D01*
G01X343500D01*
G01Y6000D01*
G01X370500D01*
G01Y-6000D01*
G01X343500D01*
G01Y6000D01*
G01Y299250D01*
G01X200700D01*
G01Y6000D01*
G01X227700D01*
G01Y-6000D01*
G01X200700D01*
G01Y6000D01*
G01Y299250D01*
G01X57900D01*
G01Y6000D01*
G01X84900D01*
G01Y-6000D01*
G01X57900D01*
G01Y6000D01*
G01Y299250D01*
G01X-84900D01*
G01Y6000D01*
G01X-57900D01*
G01Y-6000D01*
G01X-84900D01*
G01Y6000D01*
G01Y299250D01*
G01X-227700D01*
G01Y6000D01*
G01X-200700D01*
G01Y-6000D01*
G01X-227700D01*
G01Y6000D01*
G01Y299250D01*
G01X-370500D01*
G01Y6000D01*
G01X-343500D01*
G01Y-6000D01*
G01X-370500D01*
G01Y6000D01*
G01Y299250D01*
G01X-513300D01*
G01Y6000D01*
G01X-486300D01*
G01Y-6000D01*
G01X-513300D01*
G01Y6000D01*
G01Y299250D01*
G01X-697845D01*
G01Y-299250D01*
G37*
M02*

